<svg width="138" height="40" viewBox="0 0 138 40" fill="none" xmlns="http://www.w3.org/2000/svg">
<g clip-path="url(#clip0_1218_2602)">
<path d="M46.3458 21.7833C49.8515 21.5959 52.9523 21.9316 52.9132 20.1034C52.8754 18.7553 52.3536 17.2722 48.9576 17.2722C45.5993 17.2722 44.7415 18.6528 44.4802 20.2571H39.7789C40.453 15.2944 44.7041 13.3921 49.1071 13.3921C53.6223 13.3921 57.6884 14.8846 57.6884 22.4965V33.3914H52.9132V32.0027C52.908 31.2471 53.101 30.5033 53.4728 29.8456C53.6223 29.5099 53.7706 29.1364 53.4349 28.9867C53.0628 28.8371 52.9132 29.2106 52.8376 29.3912C51.7184 32.1146 49.5549 33.6812 46.0467 33.6812C42.3526 33.6812 39.1816 31.2935 39.1816 27.9729C39.1816 23.6115 42.3904 22.0071 46.3458 21.7833ZM47.1671 24.9543C45.1149 25.1781 43.9584 25.9614 43.9584 27.7154C43.9584 29.3575 45.5249 30.4024 47.7267 30.1044C50.2641 29.7674 52.8754 28.1266 52.9132 23.238C51.7941 24.4689 50.0023 24.6564 47.1671 24.9543Z" fill="black"/>
<path d="M67.5449 13.0147V13.6888H72.9189V17.8682H67.5449V33.3874H62.7645V17.8655H59.7793V13.6861H62.7645V12.5671C62.7645 7.82812 64.6302 6.52173 68.5845 6.52173H72.9136V10.7012H69.5932C67.5776 10.7012 67.5449 10.8508 67.5449 13.0147Z" fill="black"/>
<path d="M80.7495 17.5296C81.943 14.8049 83.0256 13.3879 87.8386 13.3879V18.2415C82.2786 17.8694 80.6743 19.8459 80.6743 24.8477V33.3926H75.9043V13.6859H80.6795V14.7645C80.676 15.5571 80.4839 16.3375 80.1199 17.0416C79.9717 17.3773 79.8586 17.8249 80.3073 17.899C80.5256 17.9395 80.7117 17.6415 80.7495 17.5296Z" fill="black"/>
<path d="M90.5254 6.52173H95.3019V11.2984H90.5254V6.52173ZM90.5254 13.6861H95.3019V33.3874H90.5254V13.6861Z" fill="black"/>
<path d="M116.682 24.7304H102.354C102.69 27.7153 104.63 29.5071 107.612 29.5071C109.888 29.5071 111.045 28.2748 111.604 26.5222H116.458C115.6 30.5883 112.839 33.6851 107.579 33.6851C101.197 33.6851 97.6895 29.3952 97.6895 23.5359C97.6895 17.38 101.495 13.3879 107.503 13.3879C112.056 13.3879 116.793 16.1113 116.793 23.2757C116.792 23.7627 116.755 24.2489 116.682 24.7304ZM112.018 21.4475C111.832 19.0585 110.414 17.2681 107.652 17.2681C104.406 17.2681 103.026 19.0962 102.54 21.4475H112.018Z" fill="black"/>
<path d="M123.512 23.0884L117.094 13.686H122.622L126.95 21.3708L131.277 13.686H136.805L130.371 23.0884L137.382 33.3873H131.854L126.929 24.7683L122.004 33.3873H116.477L123.512 23.0884Z" fill="black"/>
<path d="M15.7605 8.72194L10.516 17.0377L6.23948 14.8725C5.91096 14.7066 5.54548 14.6276 5.17778 14.6429C4.81009 14.6582 4.45239 14.7673 4.13878 14.9599C3.82516 15.1524 3.56602 15.422 3.386 15.743C3.20598 16.0639 3.11107 16.4256 3.1103 16.7936C3.11115 17.1445 3.19755 17.4898 3.362 17.7996C3.52645 18.1095 3.764 18.3746 4.05405 18.5719L7.887 21.1929L3.1103 28.767L0 33.6853H7.56343L13.1733 24.8047L25.0253 32.902C25.7734 33.4126 26.6582 33.6856 27.564 33.6853C28.2827 33.6849 28.9903 33.5076 29.6243 33.1689C30.2583 32.8302 30.799 32.3406 31.1988 31.7433C31.5986 31.146 31.8451 30.4594 31.9166 29.7442C31.9881 29.029 31.8823 28.3072 31.6086 27.6426L24.114 9.4419C22.6566 5.90151 17.807 5.48225 15.7605 8.72194ZM16.2404 19.9458L19.4384 14.8806L22.9194 23.3365L16.2404 19.9458Z" fill="#0065FF"/>
</g>
<defs>
<clipPath id="clip0_1218_2602">
<rect width="137.391" height="40" fill="white"/>
</clipPath>
</defs>
</svg>
